PathFileType	4	(X/Y/Z)	Patient4_TMGait_0pt3_01_left_21.trc.trc
DataRate	CameraRate	NumFrames	NumMarkers	Units	OrigDataRate	OrigDataStartFrame	OrigNumFrames
52.434456928839	52.434456928839	6	33	mm	52.434456928839	89	       141
Frame#	Time	Sacral			L.Shoulder			Chest			R.Shoulder			Neck			R.ASIS			L.ASIS			R.Thigh.Superior			R.Thigh.Lateral			R.Thigh.Inferior			R.Patella			L.Thigh.Superior			L.Thigh.Lateral			L.Thigh.Inferior			L.Patella			L.Shank.Superior			L.Shank.Lateral			L.Shank.Inferior			R.Shank.Superior			R.Shank.Lateral			R.Shank.Inferior			R.Heel			R.Midfoot.Superior			R.Midfoot.Lateral			R.Toe			L.Heel			L.Midfoot.Lateral			L.Midfoot.Superior			L.Toe			L.Elbow			L.Wrist			R.Elbow			R.Wrist			
		X1	Y1	Z1	X2	Y2	Z2	X3	Y3	Z3	X4	Y4	Z4	X5	Y5	Z5	X6	Y6	Z6	X7	Y7	Z7	X8	Y8	Z8	X9	Y9	Z9	X10	Y10	Z10	X11	Y11	Z11	X12	Y12	Z12	X13	Y13	Z13	X14	Y14	Z14	X15	Y15	Z15	X16	Y16	Z16	X17	Y17	Z17	X18	Y18	Z18	X19	Y19	Z19	X20	Y20	Z20	X21	Y21	Z21	X22	Y22	Z22	X23	Y23	Z23	X24	Y24	Z24	X25	Y25	Z25	X26	Y26	Z26	X27	Y27	Z27	X28	Y28	Z28	X29	Y29	Z29	X30	Y30	Z30	X31	Y31	Z31	X32	Y32	Z32	X33	Y33	Z33	

89	40.988285714286	773.774978301925	1001.865534671352	513.190198095060	981.862684252585	1441.116157711962	386.284580830848	1041.362931038663	1368.122493244407	565.514914624604	915.042145774398	1435.324257269608	714.630935118742	926.826066540309	1496.016503378292	540.288269576483	981.345085201019	945.752781809685	672.026772292004	1014.248685039261	962.809444597246	400.328036275259	1041.130425205701	748.629498492544	639.868198939392	962.324463277198	631.923569669960	687.167941606259	1050.533440095479	586.890552845154	613.833161085425	1058.389098788420	497.065231414887	618.526594134186	1023.753433455921	731.556255778594	421.069833230064	923.775044152804	628.667000078000	344.512154586536	989.347629770311	535.714297983744	410.277493068917	973.590260028766	456.620210451812	407.632126837982	912.835422166991	401.612671435977	394.779377449248	783.612496933580	339.498859023073	337.289910445559	783.367223663512	209.866227952619	393.385757700231	1029.290919080730	407.654676079803	620.263603107695	955.463359972728	302.890840316456	676.271408512271	1000.416865521207	208.647612886063	614.148589379365	866.483572953656	45.194883997052	578.246088924396	1037.007818227572	97.822448137171	620.578416891593	947.180208363248	37.979418584203	655.410332010226	1155.478483561177	42.701351475299	653.319144687428	602.206332063946	109.169989879983	420.493460295182	673.545526282365	75.146684123778	346.786524620994	771.601358783441	108.193835064264	373.820364255748	873.401389636794	35.146716704782	357.966237224259	1121.781612409121	1147.753362863788	230.350983465827	1380.329349235190	1129.256646759996	261.962513937394	778.436997260298	1107.562467710076	783.674414922834	783.120436384720	847.844591881477	815.280077894712	
90	41.007357142857	774.631811693804	1002.324493032233	519.717892807989	980.423252221598	1441.343912623494	389.324384123011	1042.007049629649	1369.155995945673	568.151829493742	917.203159411231	1436.406502368266	718.422818308919	926.892371467728	1496.714642043066	543.510959150079	983.573445413084	946.175253563558	676.590800505062	1014.018988443913	963.469136663121	404.875693777262	1041.450077063966	747.988135504245	644.030037618049	961.365377108092	631.682369717998	690.834756092705	1049.054151556492	586.171303643734	617.441082370825	1055.934273887708	496.199149285952	621.636285964875	1027.520831361630	733.284553006172	425.191293046811	930.430476109919	628.876665958942	348.118178045012	998.478630413798	536.636167819479	413.424779031124	983.496289918656	456.361689595813	409.505170259793	920.739450350500	401.964261030658	396.713530654038	789.519594378436	344.340549481091	339.331742196672	786.091861126810	214.183330584783	393.822704244088	1026.181260537017	407.045241146224	622.694312159623	951.573105530566	302.452358582485	677.938750110038	995.861110609789	208.335683678927	615.179890977158	860.968408471850	45.284225145117	578.290219259471	1031.524941457859	97.829136530940	620.817270099968	941.638112757023	38.022746657513	655.493159404102	1149.921639772295	42.434460264232	653.480364530101	601.923294339776	121.117334622271	420.242982766295	671.451485323322	83.292295338444	346.667119569949	771.051925205899	111.318966653058	373.522178999287	867.980309459612	34.284318588365	358.250514779420	1113.769080418262	1142.539514145303	235.479665322273	1372.181439716828	1115.966591841610	265.254022516469	783.573296331395	1108.033976524029	791.598769780178	790.423434980563	848.701668163254	825.365239088669	
91	41.026428571429	775.205616417699	1002.429443049382	526.171495945678	978.687089716664	1441.282256469994	392.333141314404	1042.405428757691	1369.780302650428	570.666422752474	919.229328250692	1437.039268828921	722.159316058275	926.772124502514	1497.079432691477	546.752265852378	985.610919298728	946.308868549511	680.909627575847	1013.412041915395	963.846561050217	409.136241673387	1041.841986992781	747.269105115223	647.924532984231	960.692740014490	631.284349737588	694.342075535893	1047.916280176607	585.385736627869	620.883347566892	1053.898833917028	495.177691094051	624.674172106839	1031.536710962542	734.997663728629	429.275067564561	937.762460699314	628.915280887628	351.715532085267	1008.281533335427	537.626200173070	416.834723257687	994.211768327874	456.162763974643	411.730749920162	929.516560217460	402.255852370979	398.919122927258	796.439199062763	349.357957571783	341.486866611519	789.462702402676	218.886802195072	394.562085951387	1023.375279544613	406.270749881789	625.063728045882	947.874692410911	301.937961729486	679.592059306838	991.373286908431	207.915205671442	616.194745023419	855.373062623406	45.359043081560	578.340649271912	1025.985833276066	97.823922644079	621.079388827251	936.011841517259	38.051357010714	655.574290911875	1144.292538958320	42.161158352800	653.641660198382	602.445073981342	133.968293776416	420.242262346423	669.996107778136	92.507386466248	346.708196886650	770.941751845435	115.180722708997	373.497601716782	862.740919754943	33.385382126892	358.486000239139	1104.834238069991	1136.919719640155	240.657213655366	1362.578670991420	1100.681795674211	268.495401665022	788.961946201167	1107.949166508859	799.597639706220	798.108207310760	849.064044827962	835.640676390564	
92	41.045500000000	775.480420870238	1002.132468293027	532.509678629405	976.646598052182	1440.908010188831	395.307844705886	1042.546150414058	1369.949890641590	573.048758854742	921.108825478931	1437.169706853650	725.830707502041	926.452873722902	1497.076301031148	550.013267666770	987.443348033782	946.139191571906	684.947445957931	1012.422789360488	963.902496375096	413.062588922500	1042.366029002725	746.474376832014	651.522438199965	960.412341044410	630.699990977037	697.651557838772	1047.236018130137	584.525767142759	624.100253725939	1052.437426187271	493.974580991149	627.570495749458	1035.748512454427	736.701251501922	433.311419584974	945.677784676667	628.811536248044	355.320554316985	1018.641764890191	538.716586765003	420.520236055016	1005.621534091669	456.055753514663	414.343227810648	939.060859408680	402.511209952581	401.419518904476	804.255710073590	354.521450856583	343.838531674503	793.449634226052	223.932120037175	395.668199798266	1020.993157780756	405.305977840104	627.311338115332	944.471774345421	301.348310672094	681.194978680567	987.009995658114	207.374200282815	617.156029742104	849.708210035797	45.420651913409	578.397676908081	1020.400901584883	97.814600197601	621.357944325277	930.315794538435	38.065777238053	655.652314479226	1138.604683284788	41.889490120667	653.800864607794	603.805494987766	147.432717967991	420.660735924858	669.253960168952	102.656127847651	347.015366244034	771.317050448019	119.797929782322	373.798244159849	857.858006814673	32.564262100513	358.589657881306	1095.106607314143	1130.982499520578	245.894763347697	1351.377898729304	1083.355827259880	271.709047972290	794.667666043759	1107.225883599799	807.596723990898	806.325504774866	848.856663989569	846.024270036592	
93	41.064571428571	775.448001594744	1001.400843999711	538.684244099080	974.297033490826	1440.203399590980	398.233699100090	1042.419304905308	1369.641196026386	575.284178164947	922.827384496785	1436.770628550486	729.418594466823	925.922067692516	1496.684914670143	553.278720216051	989.058779218856	945.660487657133	688.683489015032	1011.064453039019	963.610676212741	416.627449750219	1043.062941021558	745.602699567920	654.807713704676	960.599088384031	629.900760735987	700.733844324169	1047.097315411276	583.580871889382	627.045479216535	1051.664501610092	492.569010832104	630.265495456663	1040.068484503328	738.400331150540	437.288636275974	954.023181352513	628.605773313469	358.930481526198	1029.395197019750	539.940208256521	424.444000892971	1017.559061921731	456.076445214387	417.310706884000	949.219239317728	402.761517558966	404.188172580259	812.796586033589	359.765554059215	346.460466359449	798.026029572288	229.218558225623	397.179667213257	1019.124479227439	404.131724679333	629.387297326032	941.440925183388	300.685525236849	682.711940461842	982.818784272451	206.708568570372	618.032934032624	843.991905422059	45.475300224330	578.458299319803	1014.785881124279	97.806973780580	621.641132648045	924.570921021963	38.070003575831	655.725220988470	1132.875762252009	41.628007394481	653.955497840332	606.036326159194	161.074273277744	421.678208543820	669.308264948156	113.468092396392	347.698032128449	772.258553194716	125.100221404502	374.453615225125	853.576847478922	31.966381615242	358.461286001749	1084.731302885582	1124.811269637585	251.198111962747	1338.410609122237	1064.010067060376	274.908869366626	800.756655227098	1105.813043696968	815.513686204260	815.232137729158	848.040142445502	856.424354548390	
94	41.083642857143	775.111722134402	1000.218453909301	544.647681569817	971.640067261017	1439.156492938174	401.086715303224	1042.018110766333	1368.854582954959	577.357246140779	924.366182762676	1435.842353536864	732.898282980409	925.168326923575	1495.899876406592	556.518891727601	990.450589644120	944.875082445754	692.112037344109	1009.368522691049	962.961263227780	419.825432355041	1043.951405257495	744.650160426313	657.775300376073	961.292922929992	628.864031763507	703.572121423197	1047.545084801243	582.539965109056	629.689706802977	1051.643619030587	490.948348108934	632.716706172864	1044.378236491506	740.092940074339	441.184648580487	962.590864392688	628.342871070334	362.515640987646	1040.334642382260	541.323090911403	428.511485580305	1029.814371948483	456.260309015969	420.529844273392	959.803291900353	403.038404812246	407.144102030274	821.848791012517	364.978324100043	349.397580994484	803.179364398184	234.579653735174	399.097821388057	1017.820086439867	402.737016060180	631.258938589934	938.824615439823	299.954089566939	684.114349082045	978.832620471091	205.922389291538	618.805450882230	838.244850347158	45.533711118432	578.517613127362	1009.157510660364	97.801687182275	621.911897166492	918.799981006342	38.070413451984	655.790688895792	1127.124243281149	41.383260520046	654.103163544211	609.174047393363	174.319679111380	423.453765782502	670.256648849384	124.533897532255	348.849373369093	773.887412612135	130.914803397272	375.461924475653	850.218291281817	31.745801873623	357.993962902697	1073.852921116910	1118.478640999076	256.565273238763	1323.486856488102	1042.757725263377	278.098343431856	807.291783168018	1103.693099872540	823.260063958942	824.983743904190	846.613937651769	866.740409455261	
